<svg width="383" height="291" viewBox="0 0 383 291" fill="none" xmlns="http://www.w3.org/2000/svg">
<g id="Frame 14" clip-path="url(#clip0_75_9)">
<path id="peach" d="M189 129.477C119.8 100.244 17.1669 126.994 -25.4998 144.022L-111 113.512L1.50024 33.6897L365.5 39.7207L523.5 48.9447L492.5 134.444C484.5 183.283 456.6 282.807 409 290.187C349.5 299.411 275.5 166.018 189 129.477Z" fill="#DC796D"/>
<path id="slate" d="M197.867 106.6C130.896 74.8615 26.4465 97.8001 -17.4069 113.237L-100.563 79.623L17.6175 4.04542L380.687 23.4565L537.801 38.4795L500.596 122.723C489.039 171.203 453.905 269.567 405.83 275.186C345.736 282.209 281.581 146.274 197.867 106.6Z" fill="#5B6465"/>
<path id="brown" d="M209.254 86.1936C145.282 51.4791 38.9777 69.6283 -6.17803 83.0422L-86.1321 45.7218L38.6222 -24.335L399.197 11.521L554.634 33.6466L509.908 116.029C494.002 163.884 450.069 260.452 401.586 263.876C340.982 268.156 289.218 129.587 209.254 86.1936Z" fill="#76514D"/>
<path id="grey" d="M222.242 57.8758C161.136 20.501 53.5578 34.0938 7.40659 45.5621C7.40659 45.5621 -15.9542 52.8915 -96.2892 46.0874C-176.624 39.2833 -81.5003 -18.4998 -81.5003 -18.4998L34.4997 -73.9996L370.5 -52.5L434.5 -37L445.5 87.5C425.81 134.593 448.799 242.07 400.121 243.425C339.273 245.118 298.624 104.594 222.242 57.8758Z" fill="#2E3333"/>
</g>
<defs>
<clipPath id="clip0_75_9">
<rect width="383" height="291" fill="white"/>
</clipPath>
</defs>
</svg>
