<svg width="1510" height="250" viewBox="0 0 1510 250" fill="none" xmlns="http://www.w3.org/2000/svg">
<g id="Frame 15" clip-path="url(#clip0_75_15)">
<path id="peach" d="M1695.65 -87C1523.91 -17 1176.94 187.803 739.461 108C436.008 52.646 -44.4094 -10.5 -120.417 254.5C-120.417 276.667 -148.268 347.8 -259.669 455C-371.07 562.2 -298.737 351.333 -248.645 232.5L-328.134 -265.5L1144.45 -373L1614.42 -357.5C1643.82 -261.5 1833.05 -143 1695.65 -87Z" fill="#DC796D"/>
<path id="slate" d="M1691.9 -124.256C1521.93 -51.1162 1180.1 160.016 740.747 88.2713C435.994 38.5065 -45.8773 -15.7965 -115.31 250.54C-114.762 272.702 -140.845 344.331 -249.568 453.554C-358.292 562.776 -291.193 350.628 -244.053 230.902L-335.848 -265.524L1133.74 -400.062L1603.99 -393.202C1635.76 -297.764 1827.88 -182.769 1691.9 -124.256Z" fill="#5B6465"/>
<path id="brown" d="M1686.69 -170.021C1518.99 -93.0815 1183.68 125.669 742.302 63.8332C436.145 20.9416 -47.2072 -22.5018 -108.548 245.306C-107.328 267.448 -131.233 339.639 -236.61 451.271C-341.987 562.902 -281.338 349.317 -237.842 228.571L-344.645 -265.621L1120.37 -433.175L1590.67 -436.897C1625.31 -342.206 1820.85 -231.572 1686.69 -170.021Z" fill="#76514D"/>
<path id="grey" d="M1682.44 -203.812C1516.5 -124.109 1186.16 100.154 743.474 45.6426C436.409 7.83147 -47.8319 -27.5957 -103.148 241.176C-101.432 263.294 -123.711 335.867 -226.563 449.223C-329.414 562.578 -273.572 348.03 -232.795 226.586L-350.675 -265.74L1110.31 -457.532L1580.44 -469.046C1617.21 -374.947 1815.19 -267.574 1682.44 -203.812Z" fill="#2E3333"/>
</g>
<defs>
<clipPath id="clip0_75_15">
<rect width="1510" height="250" fill="white"/>
</clipPath>
</defs>
</svg>
