<svg width="1510" height="287" viewBox="0 0 1510 287" fill="none" xmlns="http://www.w3.org/2000/svg">
<g clip-path="url(#clip0_75_26)">
<path d="M-473.213 260.408C-234.617 235.431 257.499 159.624 824.202 199.225C1217.29 226.693 1843.51 260.386 1986.34 155.745C1989.87 146.88 2038.07 118.923 2202.67 78.0096C2367.27 37.0965 2237.91 120.153 2152.66 166.796L2178.69 367.348L211.293 384.466L-408.675 370.01C-432.333 331.103 -664.09 280.389 -473.213 260.408Z" fill="#DC796D"/>
<path d="M-479.234 288.111C-242.484 261.848 243.822 183.419 814.291 219.83C1209.99 245.085 1839.54 275.268 1973.88 169.977C1976.68 161.105 2022.62 132.918 2183.99 91.1486C2345.37 49.3794 2222.74 133.041 2141.26 180.092L2183.84 380.231L216.102 408.215L-405.608 397.209C-432.493 358.485 -668.634 309.121 -479.234 288.111Z" fill="#6C8284"/>
<path d="M-483.187 315.473C-248.844 287.65 230.048 206.061 804.775 238.544C1203.42 261.076 1836.66 286.941 1960.52 180.92C1962.43 172.044 2005.57 143.594 2162.9 100.802C2320.22 58.0113 2205.91 142.361 2129.09 189.884L2191.91 389.393L224.976 430.66L-398.48 423.886C-429.299 385.41 -670.662 337.731 -483.187 315.473Z" fill="#76514D"/>
<path d="M-486.037 336.941C-253.574 307.979 219.632 224.089 797.252 253.657C1197.91 274.167 1833.6 296.832 1949.65 190.317C1950.9 181.442 1991.96 152.81 2146.23 109.283C2300.49 65.7549 2192.38 150.576 2119.03 198.427L2196.76 397.383L231.293 448.446L-393.181 444.801C-426.893 406.525 -672.007 360.111 -486.037 336.941Z" fill="#2E3333"/>
</g>
<defs>
<clipPath id="clip0_75_26">
<rect width="1510" height="287" fill="white" transform="matrix(-1 0 0 1 1510 0)"/>
</clipPath>
</defs>
</svg>
