<svg width="360" height="241" viewBox="0 0 360 241" fill="none" xmlns="http://www.w3.org/2000/svg">
<g clip-path="url(#clip0_77_33)">
<path d="M237.12 73.4769C306.32 44.2441 408.953 70.9935 451.62 88.0224L537.12 57.5124L424.62 -22.3104L60.6199 -16.2793L-97.3801 -7.05535L-66.3801 78.4437C-58.3801 127.283 -30.4802 226.807 17.1199 234.187C76.6199 243.411 150.62 110.018 237.12 73.4769Z" fill="#DC796D"/>
<path d="M228.253 50.6002C295.224 18.8615 399.674 41.8 443.527 57.2367L526.683 23.6229L408.503 -51.9546L45.4325 -32.5435L-111.681 -17.5206L-74.4765 66.7232C-62.919 115.203 -27.7855 213.567 20.2897 219.186C80.3836 226.209 144.539 90.2737 228.253 50.6002Z" fill="#5B6465"/>
<path d="M216.867 30.1936C280.838 -4.52089 387.143 13.6283 432.298 27.0422L512.252 -10.2782L387.498 -80.3351L26.9228 -44.4791L-128.514 -22.3534L-83.7879 60.0285C-67.8819 107.884 -23.9492 204.452 24.5341 207.876C85.1383 212.156 136.902 73.5867 216.867 30.1936Z" fill="#76514D"/>
<path d="M208.867 -16.2409C272.839 -50.9554 379.143 -32.8062 424.299 -19.3923L504.253 -56.7128L379.498 -126.77L18.923 -90.9136L-136.514 -68.7879L-91.7876 13.594C-75.8817 61.4497 -31.9489 158.017 16.5344 161.441C77.1385 165.721 128.902 27.1521 208.867 -16.2409Z" fill="#F0D7C8"/>
</g>
<defs>
<clipPath id="clip0_77_33">
<rect width="360" height="241" fill="white"/>
</clipPath>
</defs>
</svg>
